<?xml version="1.0" encoding="UTF-8"?>
<svg id="Layer_1" data-name="Layer 1" xmlns="http://www.w3.org/2000/svg" viewBox="0 0 192 192">
  <defs>
    <style>
      .cls-1 {
        fill: #ed1b34;
      }
    </style>
  </defs>
  <g id="Layer_2" data-name="Layer 2">
    <rect width="192" height="192"/>
  </g>
  <g id="Layer_1-2" data-name="Layer 1">
    <g>
      <path class="cls-1" d="M156.64,89.31c-7.67-7.78-16.72-14.42-26.9-19.7-12.34-6.41-26.42-10.86-41.86-13.26-4.55-.71-9.09-1.06-13.52-1.06h0c-7.82,0-15.36,1.11-22.4,3.31-5.8,1.81-10.96,4.36-15.35,7.59-5.42,3.99-9.5,8.89-12.12,14.58-5.22,11.33-4.46,25.05,2.26,40.77,2.39,5.59,7.87,9.19,13.98,9.19h24.15c3.54,0,6.93-1.5,9.31-4.11,1.06-1.16,1.89-2.52,2.44-3.97.68,1.86,1.81,3.54,3.31,4.9,2.27,2.05,5.21,3.18,8.26,3.18h9.86c2.3,0,4.52-.64,6.43-1.83,1.73,1.15,3.82,1.83,6.04,1.83h6.06c2.04,0,3.96-.54,5.61-1.51,1.56.98,3.37,1.51,5.26,1.51h23.79c1.32,0,2.58-.28,3.73-.79,1.14.51,2.4.79,3.71.79h1.23c.65,0,1.29-.08,1.9-.21.63.13,1.27.21,1.93.21h1.25c.54,0,1.07-.05,1.59-.15.53.09,1.05.15,1.54.15h.98c2.62,0,5.08-1.27,6.58-3.4,1.53-2.17,1.87-4.92.94-7.54-1.32-3.75-6.6-16.89-19.98-30.48h0ZM173.48,125.79c-.99,1.42-2.63,2.26-4.38,2.26h-.98c-.33,0-.7-.03-1.06-.1-.16-.03-.32-.04-.49-.04s-.33.01-.5.04c-.36.07-.73.1-1.1.1h-1.25c-.45,0-.91-.05-1.37-.15-.18-.04-.38-.06-.56-.06s-.39.02-.58.06c-.44.09-.88.15-1.32.15h-1.23c-.9,0-1.79-.19-2.62-.56-.35-.15-.72-.23-1.09-.23s-.75.08-1.1.23c-.83.38-1.71.56-2.63.56h-23.79c-1.36,0-2.69-.38-3.84-1.1-.44-.27-.93-.4-1.42-.4s-.93.12-1.35.37c-1.29.75-2.75,1.14-4.25,1.14h-6.06c-1.62,0-3.19-.48-4.56-1.38-.45-.3-.97-.45-1.49-.45-.49,0-.98.13-1.41.4-1.5.93-3.24,1.42-5.02,1.42h-9.86c-2.39,0-4.69-.88-6.47-2.49-1.16-1.04-2.05-2.37-2.59-3.83-.39-1.05-1.39-1.75-2.5-1.76h-.02c-1.11,0-2.11.68-2.5,1.72-.44,1.16-1.09,2.21-1.92,3.12-1.87,2.05-4.54,3.23-7.33,3.23h-24.15c-5.03,0-9.55-2.97-11.51-7.56-6.41-15-7.18-27.98-2.28-38.59,2.43-5.27,6.22-9.83,11.28-13.54,4.15-3.06,9.05-5.48,14.56-7.2,6.78-2.11,14.04-3.18,21.59-3.18,4.28,0,8.69.35,13.1,1.03,15.15,2.35,28.96,6.73,41.04,12.99,9.93,5.15,18.76,11.61,26.22,19.2,13,13.2,18.11,25.91,19.37,29.49.63,1.79.41,3.65-.61,5.1h.01s0,0,0,0Z"/>
      <path class="cls-1" d="M122.06,84.66c-6.66-1.61-13.68-1.51-20.16.71-9.55,3.28-20.45,11.76-18.31,33.49.23,2.35,2.24,4.15,4.6,4.15h9.86c2.46,0,4.46-1.96,4.53-4.42.23-8.28,3.2-25.34,23.75-25.72,0,0,12.63-.48,27.18,14.31,4.99,5.46,7.99,12.51,8.93,14.95.21.53.72.88,1.29.88h1.24c.94,0,.45-1,.45-1-2.03-5.27-13.07-30.02-43.38-37.35h.01Z"/>
      <path class="cls-1" d="M129.15,96.69c-18.45-1.03-21.94,13.71-21.86,23.13.02,1.78,1.47,3.19,3.25,3.19h6.06c1.67,0,3.08-1.2,3.35-2.83.75-4.47,4.01-12.65,17.93-12.65.44.03.89.06,1.32.09,12.02,1.68,16.98,11.58,18.21,14.55.21.52.72.85,1.27.85h1.23c.92,0,.5-.75.5-.75-1.73-4.15-11.22-24.46-31.26-25.58h0s0,0,0,0Z"/>
      <path class="cls-1" d="M137.13,111.81c-8.98-.17-11.29,5.2-11.87,8.56-.23,1.38.8,2.64,2.2,2.64h23.79c1.04,0,1.71-1.08,1.24-2.01-1.62-3.18-5.87-9.02-15.36-9.19h0s0,0,0,0Z"/>
      <path class="cls-1" d="M86.69,63.97c-10.83-1.68-21.96-1.29-32.43,1.99-16.64,5.19-34.41,19.83-20.43,52.55,1.17,2.74,3.9,4.51,6.89,4.51h24.15c2.85,0,5.11-2.44,4.85-5.28-1.14-12.34-.09-41.82,36.56-38.8,26.17,2.16,42.99,16,52.65,27.6,4.42,5.97,7.44,13.52,8.27,15.69.11.29.3.78.92.78h.95s.54.06.28-.65c-2.01-5.73-19-48.5-82.66-58.39h0s0,0,0,0Z"/>
    </g>
  </g>
</svg>