<?xml version="1.0" encoding="UTF-8"?>
<svg id="Layer_1" data-name="Layer 1" xmlns="http://www.w3.org/2000/svg" viewBox="0 0 250.94 120">
  <defs>
    <style>
      .cls-1 {
        fill: #ed1b34;
      }
    </style>
  </defs>
  <path class="cls-1" d="M217.08,54.77c-12.12-12.3-26.42-22.78-42.51-31.13-19.5-10.12-41.75-17.17-66.15-20.96-7.19-1.12-14.37-1.68-21.36-1.68h0c-12.36,0-24.27,1.76-35.39,5.23-9.16,2.86-17.32,6.9-24.26,12-8.56,6.3-15.01,14.05-19.16,23.04C0,59.17,1.2,80.85,11.82,105.7c3.77,8.83,12.44,14.53,22.09,14.53h38.16c5.59,0,10.95-2.37,14.71-6.49,1.68-1.84,2.98-3.98,3.86-6.27,1.08,2.94,2.87,5.6,5.24,7.74,3.59,3.24,8.23,5.02,13.06,5.02h15.58c3.64,0,7.14-1.01,10.16-2.89,2.74,1.82,6.03,2.89,9.55,2.89h9.57c3.22,0,6.25-.86,8.86-2.38,2.46,1.54,5.33,2.38,8.31,2.38h37.6c2.08,0,4.07-.44,5.89-1.25,1.81.8,3.79,1.25,5.86,1.25h1.94c1.03,0,2.03-.12,3-.33.99.21,2.01.33,3.05.33h1.97c.85,0,1.69-.08,2.51-.23.84.15,1.66.23,2.44.23h1.3c.08,0,.17,0,.25,0,4.15,0,8.03-2.01,10.4-5.38,2.41-3.44,2.95-7.78,1.48-11.91-2.08-5.92-10.43-26.69-31.58-48.17ZM243.7,112.42c-1.57,2.24-4.16,3.57-6.92,3.57-.05,0-.11,0-.16,0-.03,0-.06,0-.08,0h-1.3c-.53,0-1.1-.05-1.68-.16-.25-.05-.51-.07-.77-.07s-.52.02-.78.07c-.57.11-1.15.16-1.74.16h-1.97c-.71,0-1.44-.08-2.17-.23-.29-.06-.59-.09-.89-.09s-.61.03-.91.1c-.7.15-1.4.23-2.09.23h-1.94c-1.43,0-2.82-.3-4.14-.88-.55-.24-1.14-.37-1.72-.37s-1.18.12-1.73.37c-1.31.59-2.71.88-4.16.88h-37.6c-2.15,0-4.25-.6-6.07-1.74-.69-.43-1.47-.64-2.25-.64-.74,0-1.47.19-2.13.58-2.03,1.18-4.35,1.8-6.72,1.8h-9.57c-2.56,0-5.05-.75-7.2-2.18-.71-.47-1.53-.71-2.35-.71-.77,0-1.55.21-2.23.64-2.37,1.47-5.12,2.25-7.93,2.25h-15.58c-3.78,0-7.41-1.4-10.22-3.93-1.83-1.65-3.25-3.74-4.1-6.05-.61-1.66-2.19-2.76-3.95-2.78,0,0-.02,0-.03,0-1.76,0-3.33,1.08-3.96,2.72-.7,1.83-1.72,3.49-3.03,4.93-2.96,3.24-7.18,5.11-11.58,5.11h-38.16c-7.95,0-15.09-4.69-18.19-11.95-10.13-23.7-11.34-44.22-3.61-60.98,3.84-8.33,9.84-15.53,17.82-21.4,6.56-4.83,14.3-8.65,23.01-11.37,10.71-3.34,22.19-5.03,34.12-5.03,6.77,0,13.73.55,20.7,1.63,23.94,3.72,45.76,10.63,64.85,20.53,15.69,8.14,29.64,18.35,41.44,30.34,20.55,20.86,28.62,40.94,30.61,46.61,1,2.82.65,5.76-.96,8.06Z"/>
  <path class="cls-1" d="M162.44,47.42c-10.52-2.54-21.62-2.39-31.85,1.12-15.09,5.19-32.31,18.58-28.93,52.93.37,3.72,3.54,6.56,7.27,6.56h15.58c3.89,0,7.05-3.1,7.16-6.99.36-13.09,5.06-40.05,37.53-40.64,0,0,19.95-.75,42.96,22.62,7.89,8.63,12.62,19.77,14.11,23.62.33.84,1.13,1.39,2.04,1.39h1.96c1.49,0,.72-1.59.72-1.59-3.21-8.33-20.65-47.44-68.56-59.02Z"/>
  <path class="cls-1" d="M173.64,66.43c-29.16-1.63-34.68,21.67-34.54,36.56.03,2.81,2.32,5.05,5.13,5.05,2.92,0,6.63,0,9.57,0,2.63,0,4.86-1.89,5.29-4.48,1.18-7.06,6.34-19.98,28.34-19.99.69.05,1.41.09,2.09.14,18.99,2.66,26.83,18.3,28.77,23,.34.82,1.13,1.34,2.01,1.34h1.94c1.46,0,.79-1.18.79-1.18-2.74-6.56-17.73-38.65-49.4-40.43Z"/>
  <path class="cls-1" d="M186.25,90.34c-14.19-.26-17.85,8.22-18.76,13.53-.37,2.18,1.26,4.17,3.47,4.17h37.6c1.64,0,2.71-1.71,1.96-3.17-2.56-5.02-9.28-14.25-24.27-14.52Z"/>
  <path class="cls-1" d="M106.55,14.73c-17.12-2.66-34.7-2.03-51.24,3.14C29.02,26.07.94,49.21,23.03,100.91c1.85,4.33,6.17,7.13,10.88,7.13h38.16c4.51,0,8.08-3.86,7.66-8.35-1.8-19.51-.14-66.08,57.77-61.31,41.35,3.41,67.93,25.28,83.21,43.62,6.99,9.44,11.75,21.36,13.07,24.8.17.45.48,1.24,1.46,1.24h1.5s.85.1.44-1.03c-3.17-9.06-30.02-76.65-130.62-92.27Z"/>
</svg>